<?xml version="1.0" encoding="UTF-8" standalone="no"?>
<!-- Created with Inkscape (http://www.inkscape.org/) -->

<svg
   width="182.769mm"
   height="112.56487mm"
   viewBox="0 0 182.769 112.56487"
   version="1.1"
   id="svg5"
   inkscape:version="1.2.2 (b0a84865, 2022-12-01)"
   sodipodi:docname="dgmanntextink.svg"
   xmlns:inkscape="http://www.inkscape.org/namespaces/inkscape"
   xmlns:sodipodi="http://sodipodi.sourceforge.net/DTD/sodipodi-0.dtd"
   xmlns="http://www.w3.org/2000/svg"
   xmlns:svg="http://www.w3.org/2000/svg">
  <sodipodi:namedview
     id="namedview7"
     pagecolor="#ffffff"
     bordercolor="#000000"
     borderopacity="0.25"
     inkscape:showpageshadow="false"
     inkscape:pageopacity="0.0"
     inkscape:pagecheckerboard="true"
     inkscape:deskcolor="#d1d1d1"
     inkscape:document-units="mm"
     showgrid="false"
     showborder="false"
     borderlayer="false"
     inkscape:zoom="1.9817961"
     inkscape:cx="561.86406"
     inkscape:cy="359.52236"
     inkscape:window-width="1800"
     inkscape:window-height="1097"
     inkscape:window-x="198"
     inkscape:window-y="106"
     inkscape:window-maximized="0"
     inkscape:current-layer="layer1" />
  <defs
     id="defs2">
    <inkscape:path-effect
       effect="envelope"
       id="path-effect1847"
       is_visible="true"
       lpeversion="1"
       yy="true"
       xx="true"
       bendpath1="M 96.48634,103.47424 C 157.54881,72.505593 194.45807,88.452381 229.51719,91.550588"
       bendpath2="m 245.43282,95.28835 -8.56068,60.12259"
       bendpath3="M 89.714647,189.89922 236.87214,155.41094"
       bendpath4="m 96.36495,103.83841 c -6.166914,14.66692 -9.761718,27.32213 -10.92509,59.2201"
       bendpath1-nodetypes="cc"
       bendpath4-nodetypes="cc"
       bendpath3-nodetypes="cc"
       bendpath2-nodetypes="cc" />
    <filter
       style="color-interpolation-filters:sRGB"
       inkscape:label="Drop Shadow"
       id="filter2415"
       x="-0.079280265"
       y="-0.14540015"
       width="1.1844027"
       height="1.3389601">
      <feFlood
         flood-opacity="0.498039"
         flood-color="rgb(0,0,0)"
         result="flood"
         id="feFlood2405" />
      <feComposite
         in="flood"
         in2="SourceGraphic"
         operator="in"
         result="composite1"
         id="feComposite2407" />
      <feGaussianBlur
         in="composite1"
         stdDeviation="4.8"
         result="blur"
         id="feGaussianBlur2409" />
      <feOffset
         dx="4"
         dy="4"
         result="offset"
         id="feOffset2411" />
      <feComposite
         in="SourceGraphic"
         in2="offset"
         operator="over"
         result="composite2"
         id="feComposite2413" />
    </filter>
  </defs>
  <g
     inkscape:label="Ebene 1"
     inkscape:groupmode="layer"
     id="layer1"
     transform="translate(-75.029161,-22.463529)">
    <g
       aria-label="dgmann"
       id="text236"
       style="font-size:50.8px;font-family:Molle;-inkscape-font-specification:Molle;fill:#fffdfd;fill-opacity:1;stroke:#000000;stroke-width:1.40229;stroke-linecap:square;stroke-dasharray:none;stroke-opacity:1;filter:url(#filter2415)"
       transform="translate(0.00406983,-59.331628)"
       inkscape:path-effect="#path-effect1847"
       class="UnoptimicedTransforms"
       inkscape:export-filename="dgmanntext.svg"
       inkscape:export-xdpi="96"
       inkscape:export-ydpi="96">
      <path
         d="m 90.651466,144.00152 c -0.245583,-0.0243 -0.609893,-0.21 -1.096325,-0.55626 -0.487191,-0.29693 -0.93229,-0.68795 -1.332782,-1.16677 -0.359159,-0.47425 -0.531462,-0.89861 -0.51578,-1.27384 0.0098,-0.23447 0.127103,-0.52581 0.353674,-0.87084 0.02314,-0.0437 0.04631,-0.0874 0.06951,-0.13098 -0.534192,-0.93868 -0.821456,-1.6233 -0.870678,-2.07651 0.653397,-1.89339 1.685022,-3.64676 3.095747,-5.34588 1.412266,-1.73321 2.954639,-3.3246 4.57114,-4.84232 -0.78308,0.56644 -1.531457,1.15049 -2.239546,1.75799 -0.658825,0.572 -1.230327,1.03572 -1.714855,1.38708 0.897678,-0.95655 2.013346,-1.92421 3.361032,-2.95549 0.09502,-0.0727 0.189434,-0.14511 0.283289,-0.21724 0,0 0,0 0,0 1.240829,-0.94612 2.343729,-1.80966 3.380506,-2.66266 -0.507018,0.43606 -1.015124,0.86786 -1.522558,1.29658 -0.504968,0.42665 -1.022397,0.89072 -1.543106,1.38915 0,0 0,0 0,0 10e-7,0 -0.0048,0.005 -0.0048,0.005 0,0 0.0062,-0.004 0.0062,-0.004 0.290253,-0.20839 0.560945,-0.41864 0.812297,-0.63058 0.292607,-0.21073 0.580922,-0.40354 0.863773,-0.57813 0.283842,-0.20622 0.768473,-0.57442 1.401577,-1.07377 0.676159,-0.50097 1.416528,-1.07344 2.192923,-1.70736 0.82252,-0.63927 1.55563,-1.22987 2.2232,-1.78544 0.70385,-0.55448 1.21771,-0.94058 1.56483,-1.15002 0.57149,-0.3752 0.71631,-0.56295 0.46347,-0.55621 -0.18497,0.005 -0.54326,0.21785 -1.08844,0.6266 -0.50438,0.4053 -1.02568,0.82789 -1.54738,1.25476 -0.47822,0.42173 -0.81289,0.70269 -0.94808,0.80995 -0.949924,0.72289 -1.909258,1.42149 -2.873946,2.10437 1.528865,-1.25929 2.709126,-2.24074 3.984876,-3.32724 1.26275,-1.0742 2.23671,-1.94924 3.02459,-2.6539 0.75507,0.0116 1.53402,0.20107 2.35087,0.57278 0.82563,0.32945 1.48539,0.85084 1.99186,1.5646 0.88739,1.14387 1.33153,2.35987 1.32308,3.63569 1.63677,-2.02729 3.2934,-4.21086 4.88737,-6.64967 1.65001,-2.51063 3.10095,-5.08997 4.396,-7.84544 1.32392,-2.75275 2.35561,-5.41633 3.17873,-7.86945 0.80884,-2.47508 1.34873,-4.592331 1.64664,-5.87961 -0.10882,-0.337809 -0.21744,-0.640688 -0.32524,-0.907104 -0.10779,-0.266399 -0.16717,-0.51481 -0.17786,-0.745147 -0.0213,-0.460276 0.2366,-0.765995 0.77849,-0.904836 0.44768,-0.100688 0.9775,0.168001 1.58985,0.804052 0.64291,0.622575 1.19191,1.396335 1.64219,2.301191 0.44769,0.829552 0.61489,1.665044 0.50074,2.495074 -0.32606,0.86651 -1.02223,2.78807 -1.88125,4.86577 -0.90792,2.19598 -2.02829,4.61293 -3.42625,7.13061 -1.37125,2.52345 -2.87195,4.92231 -4.55906,7.2849 -1.66703,2.29668 -3.36923,4.36078 -5.0409,6.27742 -0.26385,0.299 -0.71587,0.8696 -1.35685,1.69271 -0.25011,0.32119 -0.5188,0.66954 -0.79887,1.03588 -0.43819,0.58101 -0.9292,1.24003 -1.44021,1.9368 -0.84022,1.1135 -1.67911,2.31283 -2.48839,3.59855 -0.7696,1.25003 -1.42484,2.48946 -1.9673,3.74855 -0.53768,1.21384 -0.83063,2.28677 -0.88986,3.20705 -0.08,1.24282 0.25618,2.02355 0.97699,2.27674 0.49251,0.20128 0.73369,0.39809 0.72513,0.59291 -0.0107,0.24333 -0.28487,0.36256 -0.82513,0.35189 -0.42492,-0.008 -0.88445,-0.11692 -1.38086,-0.32462 -0.91656,-0.36446 -1.55656,-0.9426 -1.9069,-1.70671 -0.30862,-0.80956 -0.4316,-1.66445 -0.36309,-2.55837 0.10291,-1.34306 0.48605,-2.66639 1.15118,-3.99795 0.70266,-1.36026 1.37769,-2.49212 1.96788,-3.37074 -1.29071,1.0998 -2.9758,2.53444 -4.56677,3.92478 -1.571424,1.33748 -3.340156,2.83013 -4.745393,4.00914 0.08033,0.005 0.157527,0.0559 0.231662,0.15176 0.154553,0.10129 -0.0061,0.38566 -0.477555,0.86074 -0.428887,0.43215 -0.999987,0.92731 -1.713482,1.48928 -0.71157,0.51457 -1.397246,0.96395 -2.060884,1.34418 -0.623407,0.38427 -1.054776,0.56584 -1.300952,0.54146 z m 2.460014,-5.28036 c 0.599467,-0.35197 1.438989,-0.88444 2.520228,-1.59062 -2.165511,1.49485 5.826142,-4.02436 3.660636,-2.52951 1.388366,-0.96996 2.836746,-2.00139 4.275086,-3.05973 1.46296,-1.11217 2.79472,-2.15942 4.03598,-3.18443 -0.0939,-0.053 -0.14406,-0.15361 -0.15011,-0.30156 0,0 0,0 0,0 -0.004,-0.0662 0.002,-0.14218 0.017,-0.22799 0.0475,-0.27243 0.17492,-0.56556 0.38175,-0.88172 0.45847,-0.67254 0.81005,-1.27096 1.05593,-1.79348 0.24563,-0.52201 0.40711,-0.98692 0.48454,-1.39095 0.18668,-0.97405 -0.0645,-1.44794 -0.759,-1.41484 -0.55062,0.0262 -1.23508,0.36048 -2.06948,0.97991 -0.73362,0.53063 -1.72551,1.34819 -2.93287,2.38201 -0.85601,0.71068 -1.78036,1.49847 -2.70887,2.31936 -0.37178,0.33308 -0.75033,0.67668 -1.132486,1.02896 -1.310994,1.21418 -2.548081,2.41086 -3.716695,3.63925 -1.122172,1.19078 -1.997396,2.28092 -2.646103,3.29966 -0.600422,0.97514 -0.829628,1.72607 -0.706303,2.22458 3.275406,-2.17904 6.588842,-4.28729 9.877387,-6.45482 0.0141,-0.0122 0.18952,-0.1649 0.2036,-0.17715 0.0841,-0.0386 0.12611,-0.0579 0.12611,-0.0579 0.0388,7.5e-4 -0.0581,0.1197 -0.29038,0.35706 0.15791,-0.13774 -0.83539,0.72885 -0.67748,0.59112 -0.64077,0.44934 -1.46235,1.01581 -2.627293,1.81274 -1.127408,0.7339 -2.291898,1.49567 -3.461664,2.27282 -1.13305,0.74243 -2.08435,1.40852 -2.871348,2.01376 -0.173072,0.1192 -0.261191,0.20119 -0.264509,0.24575 0.03741,0.0481 0.162836,0.014 0.376294,-0.10226 z"
         style="font-family:Smooch;-inkscape-font-specification:Smooch;fill:#fffdfd;fill-opacity:1;stroke:#000000;stroke-width:1.40229;stroke-dasharray:none;stroke-opacity:1"
         id="path288"
         inkscape:original-d="m 102.51829,138.69774 q -0.3048,0 -0.9144,-0.3048 -0.6096,-0.254 -1.1176,-0.7112 -0.4572,-0.4572 -0.4572,-0.8636 0,-0.254 0.254,-0.6604 l 0.0508,-0.1016 q -0.711203,-0.9652 -0.812803,-1.4732 0.609603,-2.2352 1.981203,-4.5212 1.3716,-2.3368 2.9464,-4.4704 -0.8128,0.8128 -1.524,1.6764 -0.6604,0.8128 -1.1684,1.3208 0.8636,-1.3208 2.2352,-2.794 1.3716,-1.4732 2.4892,-2.7432 -0.508,0.6096 -1.016,1.2192 -0.508,0.6096 -1.016,1.3208 0.3048,-0.3048 0.5588,-0.6096 0.3048,-0.3048 0.6096,-0.5588 0.3048,-0.3048 0.9652,-1.016 0.7112,-0.7112 1.524,-1.5748 0.8636,-0.8636 1.5748,-1.5748 0.762,-0.7112 1.1684,-0.9652 0.6604,-0.4572 0.3048,-0.4572 -0.254,0 -0.8636,0.508 -0.5588,0.508 -1.1176,1.0668 -0.508,0.5588 -0.6604,0.7112 l -2.032,1.9304 q 1.4732,-1.6764 2.7432,-2.9972 1.3208,-1.3716 2.1844,-2.1844 1.0668,0.0508 2.3368,0.5588 1.27,0.4572 2.1844,1.3716 1.5748,1.4732 1.8796,3.0988 1.778,-2.4892 3.6068,-5.0292 1.8796,-2.5908 3.556,-4.8768 1.7272,-2.286 2.9972,-3.9624 1.27,-1.7272 1.8288,-2.54 -0.1524,-0.254 -0.3048,-0.4572 -0.1524,-0.2032 -0.1524,-0.3556 0,-0.3048 0.8636,-0.254 0.7112,0.0508 1.6256,0.6096 0.9652,0.5588 1.6256,1.27 0.6604,0.6604 0.4572,1.2192 -0.6096,0.6096 -1.9812,2.1336 -1.3716,1.524 -3.2512,3.6068 -1.8288,2.0828 -3.8608,4.4704 -2.032,2.3368 -3.9624,4.6228 -0.3048,0.3556 -1.016,1.3716 -0.7112,1.016 -1.6256,2.4384 -0.9144,1.3716 -1.778,2.9464 -0.8128,1.524 -1.3716,2.9972 -0.5588,1.4224 -0.5588,2.4384 0,1.3716 0.9652,1.6256 0.6604,0.2032 0.6604,0.4064 0,0.254 -0.7112,0.254 -0.5588,0 -1.2192,-0.2032 -1.2192,-0.3556 -1.7272,-1.1684 -0.4572,-0.8636 -0.4572,-1.8796 0,-1.524 0.6604,-3.1496 0.7112,-1.6764 1.3208,-2.794 -1.5748,1.4732 -3.5052,3.302 -1.9304,1.778 -3.7084,3.302 0.1016,0 0.2032,0.1016 0.2032,0.1016 -0.3556,0.6604 -0.508,0.508 -1.3716,1.1684 -0.8636,0.6096 -1.6764,1.0668 -0.762,0.4572 -1.0668,0.4572 z m 1.8288,-3.9624 q 0.7112,-0.4572 1.9812,-1.3716 1.27,-0.9652 2.8448,-2.1844 1.6256,-1.27 3.302,-2.6416 1.6764,-1.4224 3.0988,-2.6924 -0.2032,-0.1016 -0.2032,-0.4572 0,-0.3556 0.2032,-0.762 0.4572,-0.8636 0.6604,-1.524 0.2032,-0.6604 0.2032,-1.1684 0,-1.2192 -0.9652,-1.2192 -0.762,0 -1.7272,0.762 -0.8636,0.6604 -2.1844,2.032 -1.3208,1.3208 -2.7432,2.9972 -1.3716,1.6256 -2.5908,3.2512 -1.1684,1.5748 -1.8288,2.8448 -0.6096,1.2192 -0.4064,1.778 l 7.6708,-5.6388 q 0.1016,-0.1016 0.1524,-0.1524 0.1016,-0.0508 0.1016,-0.0508 0.0508,0 -0.2032,0.3048 -0.254,0.254 -0.508,0.508 -0.7112,0.5588 -2.032,1.5748 -1.3208,0.9652 -2.6924,1.9812 -1.3208,0.9652 -2.2352,1.7272 -0.2032,0.1524 -0.2032,0.2032 0.0508,0.0508 0.3048,-0.1016 z" />
      <path
         d="m 104.07965,178.08689 c -0.19117,-0.0128 -0.49172,-0.25698 -0.90562,-0.72924 -0.45188,-0.47476 -0.84392,-1.11873 -1.17923,-1.91966 -0.37432,-0.71733 -0.55811,-1.49619 -0.55178,-2.32791 0.004,-0.49912 0.0643,-0.98826 0.18168,-1.46813 -3.3e-4,0.001 0.1175,-0.47954 0.11717,-0.47818 -0.56779,-1.33425 -1.04582,-2.74687 -1.43291,-4.21295 -0.387215,-1.39136 -0.586647,-2.64608 -0.593673,-3.78346 -0.0031,-0.4973 0.01383,-0.84545 0.05108,-1.05216 1.026791,-2.72168 2.568221,-5.37977 4.651741,-8.01532 2.04216,-2.57322 4.40674,-4.86105 7.07013,-6.9806 2.68562,-2.10746 5.48097,-3.87509 8.26091,-5.34358 0.35801,-0.45653 0.92629,-1.31466 1.73834,-2.57378 0.79404,-1.23121 1.68021,-2.64157 2.57759,-4.09989 0.955,-1.53426 1.78681,-2.9307 2.51604,-4.25426 0.76199,-1.32113 1.24041,-2.29157 1.44177,-2.91968 -0.48968,0.35232 -1.19259,1.04963 -2.10793,2.07601 -0.8655,0.96884 -1.8532,2.12289 -2.89667,3.39955 -1.04872,1.24429 -2.10393,2.51762 -3.15338,3.82849 -1.07809,1.34665 -1.98816,2.49435 -2.8948,3.64759 -0.84169,1.07264 -1.50711,1.8435 -2.01577,2.29959 -0.22532,0.005 -0.58317,-0.33293 -1.07608,-0.99909 -0.45369,-0.66457 -0.92069,-1.41477 -1.39434,-2.23614 -0.43316,-0.81675 -0.77122,-1.42798 -1.00117,-1.82077 0.23079,-1.48004 0.79049,-2.98989 1.67975,-4.57778 0.88987,-1.58895 1.95775,-3.14964 3.19523,-4.75574 0.31478,-0.39732 0.63042,-0.79215 0.94528,-1.18336 0.91394,-1.11786 1.91115,-2.318 2.82255,-3.41622 1.31079,-1.57581 2.44661,-2.99577 3.54004,-4.40434 1.10267,-1.38055 1.97638,-2.56964 2.61922,-3.46684 0.98848,-0.11681 1.95582,-0.0584 2.91729,0.17989 0.96429,0.18749 1.73895,0.65893 2.33288,1.39744 0.62984,0.6817 0.90226,1.70607 0.8084,3.01203 -0.0301,0.4196 -0.11554,0.88812 -0.25674,1.40163 -0.10316,0.46346 -0.27927,0.97567 -0.52918,1.53268 0.29673,0.18167 0.53995,0.39163 0.72974,0.6291 0.18976,0.23742 0.25324,0.55505 0.18998,0.94928 -0.0399,0.23294 -0.0913,0.47245 -0.15419,0.71844 -0.23512,0.89854 -0.61518,1.88353 -1.14285,2.9591 -0.67673,1.37939 -1.44308,2.74137 -2.29409,4.09478 -0.84376,1.34189 -1.64422,2.57072 -2.35355,3.61374 -0.67664,1.00408 -1.11802,1.69091 -1.31733,2.02853 0.52431,-0.31512 0.9327,-0.5065 1.22447,-0.57379 0.33115,-0.11664 0.7518,-0.24001 1.26201,-0.3714 0.14693,-0.0575 0.27438,-0.0904 0.38235,-0.0987 0.0247,-0.002 0.2451,-0.019 0.26985,-0.0209 0.28772,-0.0224 0.42576,0.0593 0.41475,0.2464 -0.011,0.18709 -0.13102,0.40689 -0.36023,0.65924 -0.22933,0.25247 -0.43638,0.43322 -0.62194,0.54155 0.54616,-0.38604 -1.55551,1.09969 -1.00935,0.71365 -0.52293,0.36987 -1.10593,0.79399 -1.744,1.26997 -0.6005,0.42588 -1.1454,0.82471 -1.63557,1.1976 -0.78963,1.37599 -1.76655,3.04495 -2.92206,5.08647 -1.15635,2.04299 -2.39156,4.26567 -3.71161,6.73292 -1.30286,2.49444 -2.7014,5.15508 -4.10719,7.77227 -1.38956,2.72724 -2.75204,5.28576 -4.12252,7.61778 0.26422,0.009 0.47159,0.13409 0.62165,0.37722 0.18818,0.16502 0.0924,0.63863 -0.28833,1.43758 -0.38124,0.88054 -0.8782,1.8148 -1.49219,2.8028 -0.65341,1.07235 -1.28877,1.99332 -1.90805,2.7502 -0.6197,0.75739 -1.08169,1.13076 -1.38757,1.11032 z m 11.88308,-39.73893 c 0.45784,-0.65147 1.09156,-1.45305 1.91229,-2.41524 0.81285,-0.95295 1.49873,-1.71578 2.01867,-2.25723 -0.86957,1.26 -1.72871,2.51831 -2.58766,3.81127 -0.0405,0.0465 -0.0625,0.0922 -0.0659,0.13719 -0.003,0.045 0.0725,0.0195 0.22764,-0.0768 0.15853,-0.14119 0.28,-0.28072 0.36452,-0.41828 0.57481,-0.83169 1.15442,-1.66756 1.94529,-2.79939 0.79229,-1.08356 1.6228,-2.12288 2.47985,-3.12292 -0.3614,0.36778 -0.72356,0.73491 -1.08583,1.10127 -0.35797,0.32338 -0.70062,0.6666 -1.02689,1.03006 1.36372,-1.78632 2.7696,-3.46074 4.12772,-4.97833 0.50955,-0.55607 0.95371,-1.04628 1.34538,-1.482 0.66952,-0.73153 1.18872,-1.31296 1.50245,-1.66365 0.15326,-0.14468 0.34278,-0.31462 0.56986,-0.51226 0.23077,-0.24066 0.50584,-0.40265 0.82539,-0.48423 0.074,-0.0521 0.14216,-0.0387 0.20473,0.0401 0.1014,0.031 0.13272,0.0704 0.0939,0.11812 0.11283,-0.0998 0.20598,-0.17584 0.27985,-0.22813 0.10888,-0.0565 0.18068,-0.087 0.21573,-0.0913 0.28743,-0.12183 0.59405,-0.26856 0.91895,-0.44065 0.35989,-0.17651 0.53926,-0.26579 0.53926,-0.26579 0.14352,-0.50265 0.151,-1.03859 0.0244,-1.60955 -0.1266,-0.57098 -0.3078,-1.09738 -0.54342,-1.57494 -0.23232,-0.52544 -0.42543,-0.87428 -0.58292,-1.04058 -0.77103,0.98711 -1.64138,2.11298 -2.7156,3.45533 -1.07937,1.34877 -2.17275,2.67637 -3.40354,4.13737 0.006,-0.008 -0.33016,0.4034 -0.32381,0.39564 -1.07622,1.3384 -2.12007,2.66298 -3.11986,3.99528 -1.06596,1.43029 -1.97909,2.74102 -2.76249,3.99916 -0.74228,1.24985 -1.19978,2.32749 -1.37791,3.2404 z m 8.66527,-9.82955 c 0.54718,-0.60289 1.08263,-1.17276 1.60052,-1.70364 0.23743,-0.23879 0.47215,-0.47066 0.7037,-0.69504 0.73899,-0.7161 1.29332,-1.25791 1.7183,-1.6599 -0.39547,0.13361 -0.99391,0.6565 -1.81288,1.54436 -0.26075,0.28269 -0.51214,0.55741 -0.75491,0.82567 -0.52719,0.59302 -1.01111,1.15305 -1.45473,1.68855 z m -20.54478,43.90457 c 0.93745,-1.94284 1.8717,-3.95646 3.09456,-6.54672 1.17816,-2.42084 2.3553,-4.83677 3.56679,-7.26472 1.24652,-2.42213 2.41798,-4.59861 3.5282,-6.59627 1.09858,-1.92012 2.08094,-3.50499 2.88449,-4.741 -0.52014,0.1729 -1.34319,0.75504 -2.44388,1.75917 -1.06203,1.00226 -2.25657,2.28553 -3.54796,3.87004 -1.25852,1.59065 -2.45858,3.35727 -3.59674,5.34776 -1.17714,1.99115 -2.12238,3.98335 -2.84318,5.97623 -0.75815,2.06168 -1.13977,3.95579 -1.14475,5.61909 -0.003,1.03018 0.16395,1.89639 0.50247,2.57642 z"
         style="font-family:Smooch;-inkscape-font-specification:Smooch;fill:#fffdfd;fill-opacity:1;stroke:#000000;stroke-width:1.40229;stroke-dasharray:none;stroke-opacity:1"
         id="path290"
         inkscape:original-d="m 114.10064,155.41094 q -0.254,0 -0.8128,-0.254 -0.6096,-0.254 -1.0668,-0.7112 -0.508,-0.4064 -0.508,-0.9144 0,-0.3048 0.1524,-0.6096 l 0.1016,-0.2032 q -0.762,-0.8128 -1.27,-1.778 -0.508,-0.9144 -0.508,-1.7272 0,-0.3556 0.0508,-0.508 1.3716,-2.032 4.1148,-4.318 2.6924,-2.2352 6.1976,-4.2672 3.556,-2.032 7.3152,-3.4544 0.4572,-0.4572 1.4732,-1.778 1.016,-1.3208 2.1336,-2.9464 1.1684,-1.6764 2.032,-3.1496 0.9144,-1.4732 1.1176,-2.1844 -0.6604,0.3556 -1.8288,1.4732 -1.1176,1.0668 -2.4384,2.4892 -1.3208,1.3716 -2.6416,2.794 -1.3208,1.4224 -2.4384,2.5908 -1.0668,1.1176 -1.7272,1.5748 -0.3048,0 -1.016,-0.7112 -0.6604,-0.7112 -1.3716,-1.6256 -0.6604,-0.9144 -1.016,-1.3716 0.1524,-1.6764 1.1176,-3.556 0.9652,-1.8796 2.3876,-3.7592 1.4732,-1.8796 2.9972,-3.556 1.5748,-1.7272 2.9464,-3.0988 1.4224,-1.3716 2.286,-2.1844 1.4732,0.0508 2.9464,0.4572 1.4732,0.3556 2.4384,1.2192 1.016,0.8128 1.016,2.2352 0,0.4572 -0.1524,1.016 -0.1016,0.508 -0.4064,1.1176 0.4572,0.254 0.762,0.5588 0.3048,0.3048 0.254,0.762 -0.1524,1.2192 -0.9652,2.7432 -0.8128,1.524 -1.8796,2.9972 -1.0668,1.4732 -1.9812,2.5908 -0.8636,1.0668 -1.1176,1.4224 0.7112,-0.3048 1.1176,-0.3556 0.4572,-0.1016 1.1684,-0.2032 0.2032,-0.0508 0.3556,-0.0508 0.1524,0 0.254,0 0.4064,0 0.4064,0.2032 0,0.2032 -0.3048,0.4572 -0.3048,0.254 -0.5588,0.3556 -0.2032,0.1016 -0.9144,0.4572 -0.7112,0.3556 -1.5748,0.8128 -0.8128,0.4064 -1.4732,0.762 -1.016,1.3716 -2.54,3.2512 -1.524,1.8796 -3.302,3.9116 -1.778,2.0828 -3.7084,4.0132 -1.8796,1.9812 -3.7084,3.5052 0.3556,0 0.5588,0.1524 0.254,0.1016 -0.254,0.6096 -0.508,0.5588 -1.3208,1.1684 -0.8636,0.6604 -1.6764,1.1176 -0.8128,0.4572 -1.2192,0.4572 z m 10.1092,-21.336 q 0.5588,-0.7112 1.5748,-1.778 1.016,-1.0668 1.6764,-1.6764 l -2.0828,2.8448 q -0.0508,0.0508 -0.0508,0.1016 0,0.0508 0.2032,-0.0508 0.2032,-0.1524 0.3048,-0.3048 0.6604,-0.8636 1.5748,-2.0828 0.9652,-1.2192 2.032,-2.3368 -0.4572,0.4064 -0.9144,0.8128 -0.4572,0.3556 -0.8636,0.762 1.6764,-2.032 3.4036,-3.7084 1.778,-1.6764 2.4384,-2.286 0.2032,-0.1524 0.508,-0.3556 0.3048,-0.254 0.762,-0.3048 0.1016,-0.0508 0.2032,0.0508 0.1524,0.0508 0.1016,0.1016 0.1524,-0.1016 0.254,-0.1524 0.1524,-0.0508 0.2032,-0.0508 0.4064,-0.1016 0.8636,-0.254 0.508,-0.1524 0.508,-0.1524 0.1524,-0.5588 -0.1016,-1.2192 -0.254,-0.6604 -0.6604,-1.2192 -0.4064,-0.6096 -0.6604,-0.8128 -1.016,0.9144 -2.3876,2.286 -1.3716,1.3716 -2.8956,2.9972 -1.4732,1.6256 -2.794,3.302 -1.27,1.6256 -2.1844,3.048 -0.8636,1.4224 -1.016,2.4384 z m 7.2136,-7.2644 q 1.016,-0.9652 1.9812,-1.7272 0.9652,-0.762 1.524,-1.1684 -0.5588,0.1016 -1.6256,1.0668 -1.0668,0.9652 -1.8796,1.8288 z m -17.3736,26.3652 q 1.1684,-1.1684 2.7432,-2.8956 1.5748,-1.6764 3.2004,-3.556 1.6764,-1.8796 3.1496,-3.6068 1.4732,-1.6764 2.54,-2.8448 -0.7112,0.1524 -2.1844,1.0668 -1.4224,0.9144 -3.1496,2.286 -1.6764,1.3716 -3.2004,2.9464 -1.5748,1.5748 -2.54,2.9972 -1.016,1.4732 -1.016,2.54 0,0.6604 0.4572,1.0668 z" />
      <path
         d="m 132.84471,145.43197 c -0.32201,0.0264 -0.68961,-0.18373 -1.10518,-0.62336 -0.41491,-0.43893 -0.79192,-0.92776 -1.13005,-1.46233 -0.30227,-0.53733 -0.44563,-0.977 -0.43108,-1.32649 0.0125,-0.29927 0.0908,-0.45325 0.23425,-0.46445 0.14335,-0.0112 0.33752,0.0476 0.58187,0.17695 0.24455,0.12948 0.56355,0.17881 0.95689,0.14665 -0.19816,-0.38256 -0.33999,-0.81553 -0.42482,-1.2961 -0.0826,-0.52948 -0.11243,-1.00764 -0.0903,-1.43852 0.037,-0.7191 0.36394,-1.82933 0.98706,-3.30393 0.66636,-1.49495 1.46834,-3.10428 2.44813,-4.95004 0.99912,-1.81995 1.98075,-3.59165 2.96207,-5.40976 -4e-5,7e-5 0.0348,-0.064 0.0348,-0.0639 0.12397,-0.22068 0.2461,-0.43881 0.36681,-0.65516 0.86346,-1.55064 1.59997,-2.91273 2.29953,-4.23668 0.75196,-1.46475 1.36369,-2.72791 1.65809,-3.32059 -0.92967,1.64476 -1.82021,3.13341 -2.41054,4.12768 -0.62886,1.01627 -0.98158,1.50746 -1.05038,1.51652 -0.0688,0.009 0.26214,-0.6738 0.97921,-2.13827 0.58268,-1.19 2.10903,-4.27424 3.66436,-8.17187 0.33585,-0.0555 0.76397,0.15635 1.29178,0.62862 0.56036,0.46606 1.05295,1.02071 1.47703,1.65373 0.45777,0.62805 0.68101,1.22482 0.66744,1.7924 -0.4312,1.08922 -1.1128,2.50892 -2.05958,4.1914 -0.80584,1.39424 -1.65403,2.76465 -2.55289,4.1404 0,0 0,0 0,0 -0.16056,0.2487 -0.32257,0.49769 -0.48611,0.74715 -1.09783,1.67467 -2.05757,3.1206 -2.86798,4.3717 0.14173,-0.1435 0.64367,-0.72457 1.46052,-1.70709 1.15389,-1.38792 1.79623,-2.1474 2.95013,-3.53533 0,0 0.006,-0.006 0.006,-0.006 1.15498,-1.33246 2.29865,-2.69848 3.43337,-4.12075 1.16642,-1.42365 2.18649,-2.68069 3.04947,-3.70645 0.87022,-1.03438 1.40832,-1.60603 1.65064,-1.69071 0.16987,-0.0216 0.43712,0.15642 0.80571,0.52895 0.3682,0.37214 0.73507,0.84413 1.10141,1.40819 0.36684,0.51311 0.64898,1.02787 0.8455,1.54385 0.23147,0.46311 0.29407,0.81662 0.18706,1.06817 -0.4957,1.0121 -0.90031,1.87433 -1.39601,2.88642 -0.15665,0.32494 -0.31641,0.65552 -0.48219,0.99762 -0.60112,1.24591 -1.06504,2.20173 -1.7657,3.64593 -0.81058,1.73867 -1.54115,3.35798 -2.21325,4.95476 0.47316,-0.50799 1.12391,-1.33766 1.93713,-2.47019 0.82624,-1.14879 1.83924,-2.57305 2.8769,-4.0723 0.51701,-0.76794 1.04096,-1.54214 1.56894,-2.32206 0.5487,-0.8001 1.10154,-1.60898 1.66318,-2.4379 1.10467,-1.67658 2.12043,-3.25551 3.12894,-4.85709 1.03148,-1.58688 1.94012,-2.93544 2.7507,-4.00473 0.0674,-0.0889 0.13468,-0.1779 0.20197,-0.26713 0.0666,-0.14496 0.13309,-0.2905 0.19948,-0.43663 0.17136,-0.0139 0.42965,0.21979 0.77902,0.69156 0.34879,0.47099 0.69873,1.04425 1.04982,1.70901 0.35102,0.66463 0.61484,1.26651 0.79155,1.81438 0.21108,0.54488 0.24809,0.94046 0.1108,1.19951 -0.22196,0.39182 -0.60145,1.13508 -1.24327,2.35753 -0.54643,1.04076 -1.15017,2.17387 -1.8635,3.47804 -0.11832,0.21804 -0.23879,0.43945 -0.36191,0.66517 -0.87105,1.59689 -1.75469,3.22382 -2.61136,4.8429 -0.83157,1.59194 -1.52314,2.98279 -2.10265,4.25226 1.49795,-1.3781 2.99606,-2.73549 4.48962,-4.0805 0.36119,-0.30827 0.35646,-0.28202 -0.003,0.0682 -0.35927,0.35035 -0.83334,0.83051 -1.41172,1.43217 -0.54356,0.55452 -0.96154,1.00763 -1.25396,1.35771 -0.11023,0.14828 -0.25956,0.39258 -0.44733,0.73301 -0.15335,0.3377 -0.17405,0.43103 -0.0639,0.28205 0.58557,-0.70516 1.33013,-1.51164 2.23596,-2.42011 0.93976,-0.91103 1.89695,-1.81813 2.86849,-2.72207 0.97078,-0.94696 1.85623,-1.77704 2.64096,-2.47766 -0.67685,0.51152 -1.37416,1.04963 -2.08876,1.61236 -0.71318,0.51742 -1.43126,1.12829 -2.15268,1.83129 0.0674,-0.0675 0.90741,-0.90797 0.97477,-0.97542 0.39688,-0.39938 0.9354,-0.8795 1.61493,-1.43914 0.68071,-0.60489 1.35976,-1.16412 2.03595,-1.67609 0.67787,-0.55806 1.17464,-0.91782 1.49306,-1.08019 -0.11147,0.10277 -1.76581,1.62442 -1.87727,1.72719 0.94204,-0.64743 1.88587,-1.29414 2.82624,-1.93708 0.17723,-0.10495 0.31894,-0.18425 0.42509,-0.23793 0.10617,-0.0537 0.19433,-0.0831 0.26452,-0.0882 0.35078,-0.0255 0.36338,0.27243 0.0339,0.88887 -0.2942,0.61355 -0.71112,1.12066 -1.24752,1.52507 -0.8554,0.60953 -1.88438,1.55548 -3.07975,2.83306 -1.15205,1.22214 -2.40958,2.64391 -3.71898,4.23079 -1.28119,1.54784 -2.52784,3.11946 -3.73551,4.73368 -1.1737,1.56605 -2.17232,3.00337 -3.0125,4.31992 -0.73972,-0.92487 -1.10999,-1.82374 -1.11343,-2.69979 0.0315,-0.88075 0.0458,-1.69414 0.0419,-2.4514 0.006,-0.14258 0.22172,-0.75987 0.64909,-1.82953 -0.0496,-0.45969 -0.0302,-0.90107 0.0578,-1.3251 0.0658,-0.7016 0.33998,-1.80113 0.82182,-3.3099 0.48789,-1.5675 1.1226,-3.28086 1.91993,-5.27175 0.11437,-0.29167 0.22983,-0.5839 0.34631,-0.87675 0,0 0,0 0,0 0.66103,-1.66559 1.38036,-3.41771 2.11876,-5.20467 -0.91106,1.53289 -1.9054,3.13598 -3.05041,4.89964 -0.0931,0.14335 -0.1862,0.28645 -0.27942,0.42934 -1.07667,1.67019 -2.13581,3.28247 -3.23498,4.96073 -1.16572,1.82967 -2.16891,3.44073 -3.08613,4.99447 -0.90486,1.53284 -1.54878,2.79835 -1.93965,3.80112 -0.28949,0.27089 -0.55605,0.42025 -0.80072,0.44692 -0.20967,0.0229 -0.43153,-0.0733 -0.66592,-0.28714 -0.24258,-0.0215 -0.45621,-0.3099 -0.64017,-0.85846 -0.14672,-0.59942 -0.25194,-1.31498 -0.3149,-2.14164 -0.007,0.13968 -0.0325,0.30474 -0.0765,0.49553 -0.0418,0.14404 -0.066,0.28644 -0.0728,0.42725 0,-7e-5 -0.003,0.0705 -0.003,0.0704 -0.0349,0.004 -0.062,-0.15703 -0.0808,-0.4807 -0.0189,-0.32342 -0.006,-0.57929 0.0382,-0.76884 0.071,-0.37731 0.14228,-0.75286 0.21368,-1.1273 5e-5,-8.6e-4 -0.0108,0.2084 -0.0107,0.20753 3e-4,-0.006 -0.0287,0.56057 -0.0284,0.55484 0.0254,0.18153 0.0324,0.38848 0.0208,0.62127 0.27819,-1.38146 0.63088,-2.86098 1.06489,-4.50258 0.41793,-1.4997 0.96416,-3.43264 1.32693,-4.72295 0.0843,-0.27768 0.16346,-0.54228 0.2376,-0.79437 0,0 0,0 0,0 0.30435,-1.05156 0.51915,-1.87857 0.64723,-2.4604 -0.18432,0.44186 -0.44321,1.13892 -0.78311,2.07911 5e-4,-0.002 -0.13492,0.41461 -0.13443,0.4131 -0.27187,0.82893 -0.55135,1.69416 -0.83065,2.57641 -0.26951,0.91313 -0.5453,1.83599 -0.69093,2.3231 -0.26294,1.0296 -0.43936,1.7663 -0.53421,2.23604 -0.0914,0.41893 -0.18545,0.88598 -0.28137,1.39979 0.0384,-0.73882 0.1753,-1.68369 0.41068,-2.84338 0.27083,-1.1665 0.57563,-2.36744 0.91698,-3.64133 0.20295,-0.68978 0.40513,-1.3731 0.59183,-2.00131 0.14722,-0.50308 0.29301,-0.99932 0.43078,-1.46604 0.30862,-1.04547 0.53201,-1.79544 0.68219,-2.24534 -0.53062,0.77461 -1.40633,1.98851 -2.62731,3.56317 0.003,-0.004 -0.28503,0.36681 -0.28168,0.36249 -0.80454,1.05073 -2.72266,3.55488 -3.77569,4.93624 -1.46107,1.91661 -2.90485,3.84906 -4.30898,5.83168 -0.1873,0.26493 -0.37001,0.52651 -0.5483,0.78504 -1.12938,1.63436 -2.06855,3.12862 -2.83452,4.51513 0.14427,-0.0619 0.32301,-0.10239 0.536,-0.12162 0.28383,-0.0256 0.58038,0.0698 0.88888,0.28794 0.3087,0.21832 0.45497,0.52687 0.43957,0.92917 -0.0135,0.35202 -0.24189,0.80212 -0.68538,1.35393 -0.44534,0.60327 -0.9584,1.14283 -1.54086,1.61283 -0.58487,0.52336 -1.07136,0.80364 -1.46521,0.83593 z"
         style="font-family:Smooch;-inkscape-font-specification:Smooch;fill:#fffdfd;fill-opacity:1;stroke:#000000;stroke-width:1.40229;stroke-dasharray:none;stroke-opacity:1"
         id="path292"
         inkscape:original-d="m 140.26263,139.66294 q -0.4572,0 -1.0668,-0.4572 -0.6096,-0.4572 -1.1176,-1.016 -0.4572,-0.5588 -0.4572,-0.9144 0,-0.3048 0.2032,-0.3048 0.2032,0 0.5588,0.1524 0.3556,0.1524 0.9144,0.1524 -0.3048,-0.4064 -0.4572,-0.9144 -0.1524,-0.5588 -0.1524,-1.016 0,-0.762 0.762,-2.3368 0.8128,-1.5748 2.032,-3.556 1.27,-1.9812 2.54,-3.9116 1.3208,-1.9304 2.3876,-3.4036 1.0668,-1.524 1.524,-2.1336 -1.3716,1.5748 -2.2352,2.6416 -0.8636,1.016 -0.9652,1.016 -0.1016,0 0.8636,-1.4732 0.9652,-1.4732 3.4036,-5.0292 0.508,0 1.3208,0.508 0.8636,0.508 1.524,1.1684 0.7112,0.6604 0.7112,1.2192 -0.6096,1.016 -1.9304,2.6924 -1.3208,1.6256 -2.794,3.3528 -1.4732,1.7272 -2.54,3.048 0.2032,-0.1524 1.3208,-1.1684 1.1176,-1.016 2.6924,-2.3876 1.6256,-1.3716 3.2512,-2.7432 1.6764,-1.3716 2.9464,-2.286 1.27,-0.9144 1.6256,-0.9652 0.254,0 0.8128,0.4064 0.5588,0.4064 1.1176,1.016 0.5588,0.5588 0.8636,1.1176 0.3556,0.508 0.2032,0.762 -0.3556,0.508 -1.3208,1.9812 -0.9144,1.4224 -2.032,3.2512 -1.0668,1.8288 -1.9304,3.5052 0.6604,-0.508 1.778,-1.6764 1.1684,-1.2192 2.6416,-2.794 1.4732,-1.6256 3.048,-3.2512 1.5748,-1.6764 3.048,-3.1496 1.524,-1.4732 2.7432,-2.3876 l 0.2032,-0.1524 0.2032,-0.254 q 0.254,0 0.762,0.4572 0.508,0.4572 1.016,1.1176 0.508,0.6604 0.762,1.2192 0.3048,0.5588 0.1016,0.8128 -0.3048,0.3556 -1.2192,1.5748 -0.9144,1.2192 -2.1336,2.8956 -1.2192,1.6764 -2.3876,3.4036 -1.1176,1.6764 -1.8796,2.9972 l 4.2164,-2.6924 q 0.508,-0.3048 0,0.0508 -0.508,0.3556 -1.3208,0.9652 -0.762,0.5588 -1.1684,0.9144 -0.1524,0.1524 -0.4064,0.508 -0.2032,0.3556 -0.0508,0.2032 0.8128,-0.7112 2.0828,-1.6256 1.3208,-0.9144 2.6924,-1.8288 1.3716,-0.9652 2.4892,-1.6764 -0.9652,0.508 -1.9812,1.0668 -1.016,0.508 -2.032,1.2192 l 0.9144,-0.6604 q 0.5588,-0.4064 1.524,-0.9652 0.9652,-0.6096 1.9304,-1.1176 0.9652,-0.5588 1.4224,-0.7112 l -1.778,1.1684 2.6924,-1.27 q 0.254,-0.1016 0.4064,-0.1524 0.1524,-0.0508 0.254,-0.0508 0.508,0 0.0508,0.6604 -0.4064,0.6604 -1.1684,1.0668 -1.2192,0.6096 -2.8956,1.9304 -1.6256,1.27 -3.4544,2.8956 -1.778,1.5748 -3.4544,3.1496 -1.6256,1.524 -2.794,2.7432 -1.1176,-1.016 -1.1684,-1.9304 0,-0.9144 -0.0508,-1.7272 0,-0.1524 0.5588,-1.27 -0.1016,-0.508 0,-0.9652 0.0508,-0.762 0.6604,-2.3876 0.6096,-1.6764 1.6764,-3.7592 1.0668,-2.1336 2.3368,-4.2164 -1.3208,1.4732 -2.9464,3.302 -1.6256,1.8288 -3.2512,3.7084 -1.5748,1.8796 -2.794,3.4544 -1.2192,1.5748 -1.7272,2.5908 -0.4064,0.254 -0.762,0.254 -0.3048,0 -0.6604,-0.254 -0.3556,-0.0508 -0.6604,-0.6604 -0.254,-0.6604 -0.4064,-1.5748 0,0.1524 -0.0508,0.3556 -0.0508,0.1524 -0.0508,0.3048 v 0.0508 q -0.0508,0 -0.1016,-0.3556 -0.0508,-0.3556 0,-0.5588 l 0.1524,-0.8128 v 0.1524 q 0,0.2032 0,0.4064 0.0508,0.2032 0.0508,0.4572 0.3048,-1.4732 0.8128,-3.2512 0.5588,-1.8288 1.0668,-3.4036 0.5588,-1.5748 0.762,-2.3368 -0.254,0.4572 -0.7112,1.4732 -0.4064,1.016 -0.8128,2.1336 -0.3556,1.0668 -0.5588,1.6764 -0.3048,1.1176 -0.4064,1.6256 -0.1016,0.4572 -0.2032,1.016 0,-0.8128 0.254,-2.0828 0.3048,-1.27 0.7112,-2.6416 0.4572,-1.3716 0.8636,-2.4892 0.4064,-1.1176 0.6096,-1.5748 -0.762,0.762 -2.4892,2.3876 -1.6764,1.5748 -3.7084,3.6068 -1.9812,1.9812 -3.8608,4.0132 -1.8288,1.9812 -2.9972,3.556 0.2032,-0.0508 0.508,-0.0508 0.4064,0 0.8636,0.254 0.4572,0.254 0.4572,0.6604 0,0.3556 -0.6096,0.8636 -0.6096,0.5588 -1.4224,0.9652 -0.8128,0.4572 -1.3716,0.4572 z" />
      <path
         d="m 168.25127,139.07873 c -0.21158,0.0243 -0.53499,-0.28098 -0.97096,-0.90874 -0.40172,-0.58234 -0.81741,-1.23002 -1.24651,-1.93944 -0.39051,-0.75721 -0.68739,-1.31491 -0.88181,-1.66327 0.38629,-1.85582 1.00539,-3.74633 1.849,-5.712 0.87753,-2.00736 1.8735,-3.97763 2.96464,-5.92625 0.16286,-0.29085 0.32542,-0.57959 0.48728,-0.86564 0.88709,-1.55336 1.8042,-3.12486 2.67001,-4.57255 0.32824,-0.53135 0.64052,-1.0409 0.9403,-1.5325 0.5562,-0.91232 1.26406,-2.08627 1.82025,-2.99859 -0.57711,0.69123 -1.18236,1.57719 -1.82671,2.63911 0,0 0,0 0,0 0,1e-5 -0.0133,0.022 -0.0133,0.022 -0.6349,0.99764 -1.11283,1.70935 -1.34024,2.03573 -0.41495,0.59551 -0.83129,1.18316 -1.24962,1.76502 -0.41837,0.5353 -0.80318,1.06358 -1.15389,1.58437 1.03183,-1.7093 2.0941,-3.44164 3.06567,-4.98331 0.24381,-0.37406 0.46943,-0.71955 0.67956,-1.03883 0,0 0,0 0,0 0.67996,-1.03347 1.17502,-1.75581 1.51745,-2.17098 0.10124,-0.16017 0.23679,-0.34809 0.40662,-0.56436 0.20514,-0.21735 0.42965,-0.3561 0.67497,-0.41505 0.13358,-0.24267 0.26686,-0.48671 0.39986,-0.73223 0.95778,0.0361 1.99399,0.48253 3.13411,1.29869 1.13378,0.76121 2.12539,1.76004 2.95903,2.94375 0.8692,1.13624 1.34315,2.39286 1.40485,3.75981 0.003,0.1766 -0.0668,0.35442 -0.21019,0.53415 -0.14405,0.13597 -0.25478,0.053 -0.33292,-0.25274 -0.26641,-0.65194 -0.5705,-1.25122 -0.9098,-1.79142 -0.33945,-0.54046 -0.71305,-0.97601 -1.11901,-1.29699 -0.36897,-0.27489 -0.75045,-0.40978 -1.14624,-0.39968 -0.43205,0.011 -0.82018,0.21387 -1.17039,0.60555 -0.7021,0.73642 -1.53606,1.82066 -2.52281,3.22232 -0.45366,0.64597 -0.91648,1.31551 -1.38168,1.99835 -0.5178,0.77046 -1.04845,1.57494 -1.58307,2.40183 1.3e-4,-2.1e-4 -0.0961,0.15399 -0.096,0.15378 0,0 0,0 0,0 -0.95753,1.5355 -1.83672,3.01018 -2.64128,4.45918 -0.79594,1.49429 -1.35287,2.72964 -1.6742,3.71657 0.22404,-0.33852 0.61301,-0.82832 1.16572,-1.46123 0.55287,-0.6331 1.14141,-1.26404 1.76504,-1.89293 0.48161,-0.51869 0.91082,-0.96689 1.28175,-1.34064 0.11005,-0.11096 0.21531,-0.2157 0.31571,-0.31417 0.14548,-0.14268 0.45876,-0.43377 0.93312,-0.86433 0.47467,-0.43085 0.97037,-0.88554 1.48192,-1.35963 0.54766,-0.47681 0.98646,-0.83552 1.31388,-1.07569 -0.002,0.0885 -0.22282,0.34429 -0.66281,0.76903 -0.40463,0.42295 -0.89892,0.89509 -1.48515,1.42155 -0.58502,0.52537 -1.13511,1.00869 -1.64559,1.44547 -0.0938,0.0857 -0.18057,0.16585 -0.2602,0.2403 0,0 0,0 0,0 -0.32384,0.30255 -0.5308,0.51189 -0.61994,0.62559 -0.40953,0.47968 -0.88281,1.0223 -1.43943,1.6546 -0.52525,0.63431 -0.99149,1.19914 -1.4423,1.74639 -0.44316,0.53798 -0.74048,0.93228 -0.89023,1.17452 -0.0778,0.19014 -0.0999,0.30681 -0.0664,0.34927 0.0335,0.0425 0.10666,-0.0335 0.21974,-0.22726 0.34091,-0.62686 0.84276,-1.3092 1.5057,-2.04286 0.66286,-0.73357 1.37948,-1.46435 2.149,-2.19218 0.19354,-0.18599 0.38143,-0.36689 0.56449,-0.5436 0.58255,-0.5627 1.10598,-1.0725 1.58326,-1.54482 0.73299,-0.71284 1.39684,-1.33233 1.98142,-1.85246 0.62418,-0.56884 1.17267,-1.08428 1.65037,-1.55332 0.0547,-0.93062 0.33206,-1.59392 0.84067,-1.97627 0.0788,-0.0556 0.15489,-0.10582 0.2283,-0.15078 0,0 0,0 0,0 0.43039,-0.25675 0.76918,-0.3347 1.01795,-0.23489 0.10664,0.0375 0.23931,0.0944 0.39844,0.1706 0.16463,0.0829 0.35727,0.18745 0.57849,0.31364 0.4698,0.20106 0.88559,0.46999 1.24552,0.80455 0.36061,0.29076 0.46494,0.63447 0.31118,1.03272 -0.26916,0.70745 -0.4946,1.80175 -0.68961,3.27442 -0.15764,1.43219 -0.2668,2.74414 -0.3207,3.96776 -0.0768,1.74247 0.33442,2.59866 1.24741,2.52472 0.4759,-0.0385 1.12815,-0.39978 1.96768,-1.07025 0.30453,-0.2394 0.53121,-0.36361 0.67841,-0.37425 0.11055,-0.008 0.16266,0.053 0.15623,0.18293 -0.009,0.17358 -0.11369,0.44017 -0.31508,0.80355 -0.19944,0.32007 -0.33724,0.52728 -0.41532,0.62133 -0.46885,0.60609 -1.02621,1.18373 -1.66944,1.73256 -0.60529,0.5012 -1.21447,0.78484 -1.83206,0.84255 -0.25414,0.0238 -0.50591,0.002 -0.75568,-0.0656 -0.24978,-0.0675 -0.49626,-0.20361 -0.73982,-0.40792 -0.87179,-0.69083 -1.46862,-1.8117 -1.79846,-3.3342 -0.29332,-1.52314 -0.42022,-2.82487 -0.38004,-3.91723 9.2e-4,-0.025 0.0249,-0.69607 0.0258,-0.72108 0.0436,-0.22091 0.0863,-0.41992 0.12811,-0.59703 -0.38623,0.39578 -1.12169,1.16555 -2.06709,2.18138 -0.91968,0.98179 -1.9847,2.1524 -3.12416,3.46168 3e-5,-3e-5 -0.0967,0.10754 -0.0967,0.1075 0,0 -1e-5,0 -1e-5,0 -1.11924,1.24476 -2.16257,2.4273 -3.16788,3.59015 -1.03928,1.20217 -1.79877,2.08802 -2.35416,2.70021 z"
         style="font-family:Smooch;-inkscape-font-specification:Smooch;fill:#fffdfd;fill-opacity:1;stroke:#000000;stroke-width:1.40229;stroke-dasharray:none;stroke-opacity:1"
         id="path294"
         inkscape:original-d="m 174.34934,138.03734 q -0.3048,0 -0.9652,-0.7112 -0.6096,-0.6604 -1.27,-1.4732 -0.6096,-0.8636 -0.9144,-1.27 0.4572,-1.9812 1.5748,-4.1148 1.1684,-2.1844 2.6924,-4.2672 1.524,-2.0828 3.048,-3.8608 1.5748,-1.778 2.7432,-2.9972 -0.8636,0.6604 -1.8288,1.7272 -0.9652,1.016 -1.3208,1.3716 -0.6096,0.6096 -1.2192,1.2192 -0.6096,0.5588 -1.1176,1.1176 1.524,-1.8796 2.9972,-3.4544 1.524,-1.5748 2.1844,-2.0828 0.1524,-0.1524 0.4064,-0.3556 0.3048,-0.2032 0.6604,-0.254 l 0.4064,-0.4572 q 1.3716,0.0508 2.9464,0.8636 1.5748,0.762 2.6924,2.032 1.1684,1.2192 1.2192,2.794 0,0.2032 -0.2032,0.4064 -0.2032,0.1524 -0.3048,-0.2032 -0.3556,-0.762 -0.8128,-1.3716 -0.4572,-0.6096 -1.016,-0.9652 -0.508,-0.3048 -1.0668,-0.3048 -0.6096,0 -1.1176,0.4064 -1.016,0.762 -2.4384,2.286 -1.3716,1.4732 -2.794,3.2004 -1.3716,1.7272 -2.4892,3.3528 -1.0668,1.6256 -1.4732,2.6924 0.3048,-0.3556 1.0668,-1.016 0.762,-0.6604 1.6256,-1.3208 0.8636,-0.7112 1.4732,-1.1684 0.2032,-0.1524 0.8636,-0.6096 0.6604,-0.4572 1.3716,-0.9652 0.762,-0.508 1.2192,-0.762 0,0.1016 -0.6096,0.5588 -0.5588,0.4572 -1.3716,1.016 -0.8128,0.5588 -1.524,1.016 -0.6604,0.4572 -0.8128,0.6096 -0.5588,0.508 -1.3208,1.1684 -0.7112,0.6604 -1.3208,1.2192 -0.6096,0.5588 -0.8128,0.8128 -0.1016,0.2032 -0.0508,0.254 0.0508,0.0508 0.2032,-0.1524 0.4572,-0.6604 1.3716,-1.4224 0.9144,-0.762 1.9812,-1.524 1.1176,-0.8128 1.9812,-1.4732 1.016,-0.762 1.8288,-1.3208 0.8636,-0.6096 1.524,-1.1176 0.0508,-1.0668 0.762,-1.4732 0.762,-0.4064 1.1684,-0.254 0.3048,0.1016 0.9144,0.4064 0.6604,0.254 1.1684,0.6604 0.508,0.3556 0.3048,0.8128 -0.3556,0.8128 -0.5588,2.54 -0.1524,1.6764 -0.1524,3.0988 0,2.032 1.27,2.032 0.6604,0 1.778,-0.7112 0.4064,-0.254 0.6096,-0.254 0.1524,0 0.1524,0.1524 0,0.2032 -0.254,0.6096 -0.254,0.3556 -0.3556,0.4572 -0.6096,0.6604 -1.4732,1.2192 -0.8128,0.508 -1.6764,0.508 -0.3556,0 -0.7112,-0.1016 -0.3556,-0.1016 -0.7112,-0.3556 -1.27,-0.8636 -1.8288,-2.6416 -0.508,-1.778 -0.508,-3.048 0,-0.3048 0,-0.5588 0.0508,-0.254 0.1016,-0.4572 -0.5588,0.4572 -1.8796,1.5748 -1.27,1.0668 -2.8448,2.4384 -1.5748,1.3208 -2.9972,2.4892 -1.4224,1.1684 -2.1844,1.7272 z" />
      <path
         d="m 188.22134,135.84365 c -0.62293,-0.0353 -1.09772,-0.41786 -1.42877,-1.14241 -0.32828,-0.76761 -0.475,-1.50014 -0.44066,-2.19673 0.0279,-0.56652 0.36703,-1.49902 1.01584,-2.77524 0.65536,-1.32821 1.44759,-2.76546 2.39544,-4.37625 0.85029,-1.42617 1.74136,-2.89573 2.59073,-4.29736 -0.006,0.01 0.35058,-0.57248 0.34448,-0.56255 1.00401,-1.58045 1.84509,-2.95821 2.601,-4.22637 0.72228,-1.25805 1.26177,-2.25689 1.51686,-2.73117 -0.87651,1.29973 -1.60732,2.35687 -2.18066,3.20095 -0.53717,0.79961 -0.84738,1.19052 -0.92296,1.19154 -0.0378,5e-4 0.24956,-0.55935 0.84449,-1.72427 0.57457,-1.05792 1.75456,-3.28468 3.1033,-6.27791 0.38185,0.0107 0.87309,0.25071 1.48243,0.7068 0.60791,0.45501 1.16607,0.97192 1.67053,1.54391 0.54014,0.52585 0.82644,1.01108 0.85633,1.46673 -0.30743,0.63365 -0.78226,1.46557 -1.42957,2.47038 -0.64917,1.00769 -1.39846,2.05461 -2.25567,3.1503 -0.23363,0.29864 -1.08518,1.38495 -1.31882,1.68358 -0.40223,0.52242 -0.79752,1.03809 -1.18647,1.54911 -0.82556,1.04299 -1.50833,1.91359 -2.10999,2.70139 0.1169,-0.12917 0.56486,-0.5439 1.34047,-1.23692 0.63956,-0.57147 2.26359,-2.01825 2.90316,-2.58971 0.16364,-0.15193 0.3283,-0.30429 0.494,-0.45711 0.99137,-0.89323 2.02533,-1.81336 3.09376,-2.75904 1.27219,-1.13509 2.51386,-2.2331 3.66271,-3.23119 0.81348,-0.73917 1.53789,-1.38641 2.18369,-1.94228 0.27372,-0.23526 0.53239,-0.45327 0.7767,-0.65408 0.82089,-0.67471 1.34586,-1.01422 1.58821,-1.01175 0.20097,0.002 0.4983,0.18903 0.8945,0.55369 0.39546,0.36397 0.79944,0.81287 1.20823,1.3389 0.44591,0.48228 0.78836,0.95493 1.02626,1.42228 0.23457,0.42423 0.27447,0.71762 0.12193,0.88772 -0.2286,0.25491 -0.77908,0.89311 -1.66637,1.88867 -0.81578,0.9585 -1.75449,2.0385 -2.8765,3.2886 0,0 0,0 0,0 1e-5,-2e-5 -0.16885,0.19155 -0.16884,0.19153 -0.17987,0.21075 -0.35929,0.42136 -0.53812,0.63173 0,0 0,0 0,0 -0.97691,1.15042 -1.9448,2.3033 -2.887,3.45251 -1.07922,1.32484 -1.91541,2.45505 -2.51984,3.41621 1.41426,-0.95201 2.83858,-1.88927 4.26549,-2.81635 0.32888,-0.21256 0.32284,-0.189 -0.003,0.0599 -0.31766,0.24272 -0.74927,0.57306 -1.23066,0.94348 -0.49173,0.37838 -0.86148,0.67434 -1.1081,0.88484 -0.12464,0.12548 -0.2736,0.33232 -0.4475,0.62122 -0.17169,0.24904 -0.1946,0.30988 -0.07,0.184 0.61936,-0.55025 1.39853,-1.16293 2.34147,-1.83695 0.50256,-0.35923 1.01681,-0.71741 1.54287,-1.07489 0.46088,-0.31273 0.93086,-0.62485 1.41008,-0.93664 1.04192,-0.6915 2.04093,-1.34871 2.83826,-1.8714 -0.73846,0.37842 -1.45463,0.75643 -2.14954,1.13491 -0.65602,0.3573 -1.34967,0.77043 -2.07854,1.23913 0,0 0,0 0,0 -0.0426,0.0274 -0.0853,0.055 -0.12815,0.0829 4.5e-4,-3.3e-4 0.12817,-0.0932 0.12862,-0.0935 0.0146,-0.0106 0.7183,-0.52069 0.73293,-0.53131 0.37025,-0.29014 0.90252,-0.64469 1.59817,-1.06267 0.69556,-0.41793 1.39209,-0.81552 2.08888,-1.19276 0.73727,-0.37829 1.29182,-0.63233 1.66076,-0.7616 -0.39549,0.26123 -1.39689,0.92207 -1.79237,1.1833 0.45084,-0.21132 0.92257,-0.42302 1.41574,-0.63532 0.49401,-0.25214 1.00894,-0.50479 1.54542,-0.75829 0.32976,-0.12839 0.55658,-0.19428 0.67998,-0.1976 0.37012,-0.01 0.389,0.20872 0.0513,0.65497 -0.29651,0.44493 -0.73858,0.83353 -1.3209,1.16681 -0.91155,0.46076 -1.99625,1.16592 -3.24849,2.11373 -1.13218,0.85695 -2.33422,1.81263 -3.57169,2.85131 0,0 0,0 0,0 -0.1269,0.10665 -0.25437,0.21432 -0.38236,0.32301 -1.34118,1.17078 -2.64118,2.35726 -3.89283,3.5693 -1.25198,1.17429 -2.30133,2.23447 -3.17059,3.18704 -0.74974,-0.66725 -1.11901,-1.35965 -1.10785,-2.06955 0.0112,-0.70893 0.0343,-1.33286 0.0695,-1.8695 -1e-4,0.002 0.0163,-0.24961 0.0162,-0.24798 -0.003,0.0392 0.0304,-0.47232 0.0279,-0.43313 0.0514,-0.20805 0.14237,-0.43837 0.27275,-0.69046 -0.0258,-0.20318 -0.17104,-0.33896 -0.43493,-0.40763 -0.26145,-0.10969 -0.36814,-0.24777 -0.32053,-0.41371 0.19757,-0.78746 0.60876,-1.70208 1.23103,-2.74375 0.62303,-1.04293 1.3146,-2.11981 2.07628,-3.24677 0.45394,-0.63952 0.90723,-1.27111 1.35319,-1.88664 0.33034,-0.44878 0.66149,-0.89676 0.98835,-1.33713 0.76175,-1.02627 1.39515,-1.92224 1.91381,-2.68652 0.51613,-0.76055 0.84327,-1.30506 0.98224,-1.60552 -0.37673,0.3982 -1.13445,1.20328 -2.08258,2.18298 -1.02056,1.00921 -2.08839,2.06211 -3.43002,3.36648 -0.004,0.003 -0.11765,0.11406 -0.12121,0.11751 -1.22107,1.2101 -2.59237,2.57969 -3.94318,3.95467 -1.42496,1.45045 -2.77719,2.8879 -4.05434,4.33352 -1.27762,1.40667 -2.34815,2.69599 -3.23009,3.88365 -0.87857,1.18311 -1.4423,2.13576 -1.69658,2.82475 z"
         style="font-family:Smooch;-inkscape-font-specification:Smooch;fill:#fffdfd;fill-opacity:1;stroke:#000000;stroke-width:1.40229;stroke-dasharray:none;stroke-opacity:1"
         id="path296"
         inkscape:original-d="m 193.14532,137.17374 q -0.8636,-0.1016 -1.3716,-0.9652 -0.508,-0.9144 -0.508,-1.7272 0,-0.6604 0.8128,-2.1336 0.8128,-1.524 2.032,-3.4036 1.27,-1.9304 2.5908,-3.81 1.3716,-1.8796 2.4384,-3.302 1.0668,-1.4732 1.4732,-2.032 -1.27,1.4224 -2.0828,2.3876 -0.762,0.9144 -0.8636,0.9144 -0.0508,0 0.8128,-1.3208 0.9144,-1.3208 3.0988,-4.5212 0.508,0 1.27,0.4572 0.762,0.4572 1.3716,1.0668 0.6604,0.5588 0.6604,1.0668 -0.4572,0.7112 -1.3716,1.8796 -0.9144,1.1684 -2.0828,2.4892 -1.1684,1.3208 -2.2352,2.5908 -1.0668,1.2192 -1.8288,2.1336 0.1524,-0.1524 1.1684,-0.9652 1.016,-0.8128 2.54,-2.032 1.524,-1.27 3.2004,-2.5908 1.7272,-1.3716 3.302,-2.54 1.5748,-1.2192 2.6924,-1.9812 1.1176,-0.762 1.4224,-0.762 0.254,0 0.7112,0.4064 0.4572,0.4064 0.9144,1.016 0.508,0.5588 0.762,1.1176 0.254,0.508 0.0508,0.7112 -0.3048,0.3048 -1.4732,1.524 -1.1176,1.2192 -2.6416,2.8956 -1.4732,1.6764 -2.8448,3.3528 -1.3208,1.6256 -2.032,2.794 l 3.556,-2.2352 q 0.4064,-0.254 0,0.0508 -0.4064,0.3048 -1.016,0.762 -0.6096,0.4572 -0.9144,0.7112 -0.1524,0.1524 -0.3556,0.508 -0.2032,0.3048 -0.0508,0.1524 0.762,-0.6604 1.9304,-1.4732 1.1684,-0.8128 2.4384,-1.6256 1.3208,-0.8636 2.3368,-1.524 -0.9144,0.4572 -1.778,0.9144 -0.8636,0.4572 -1.8288,1.0668 l 0.7112,-0.508 q 0.4572,-0.3556 1.3208,-0.8636 0.8636,-0.508 1.7272,-0.9652 0.9144,-0.4572 1.3716,-0.6096 l -1.4732,0.9652 q 0.5588,-0.254 1.1684,-0.508 0.6096,-0.3048 1.27,-0.6096 0.4064,-0.1524 0.5588,-0.1524 0.4572,0 0.0508,0.5588 -0.3556,0.5588 -1.0668,0.9652 -1.1176,0.5588 -2.6416,1.7272 -1.524,1.1684 -3.2004,2.5908 -1.6256,1.4224 -3.1496,2.8448 -1.524,1.3716 -2.5908,2.4384 -1.0668,-0.8636 -1.1176,-1.7272 -0.0508,-0.8636 -0.0508,-1.524 v -0.2032 q 0,-0.1524 0,-0.3556 0.0508,-0.254 0.2032,-0.5588 -0.0508,-0.254 -0.4064,-0.3556 -0.3556,-0.1524 -0.3048,-0.3556 0.2032,-0.9652 0.9652,-2.2352 0.762,-1.27 1.7272,-2.6416 1.016,-1.3716 2.032,-2.6416 1.016,-1.27 1.7272,-2.1844 0.7112,-0.9144 0.9144,-1.27 -0.5588,0.508 -1.8796,1.7272 -1.3208,1.1684 -3.048,2.7432 -1.6764,1.524 -3.5052,3.2512 -1.8288,1.7272 -3.4544,3.4036 -1.6256,1.6256 -2.7432,2.9464 -1.1176,1.3208 -1.4224,2.0828 z" />
      <path
         d="m 211.36632,134.22755 c -0.66542,-0.0462 -1.15738,-0.40666 -1.4845,-1.07889 -0.32263,-0.71203 -0.45504,-1.39001 -0.39552,-2.03298 0.0484,-0.52329 0.44235,-1.37844 1.17748,-2.55479 0.74414,-1.22554 1.63361,-2.55345 2.69124,-4.05233 1.03132,-1.44291 1.83891,-2.56375 2.87023,-4.00667 0.12744,-0.17607 0.25472,-0.35231 0.38196,-0.52892 1.10602,-1.47847 2.04085,-2.78851 2.86058,-3.96691 0.78562,-1.17239 1.37362,-2.108 1.64623,-2.5436 -0.95102,1.2118 -1.74877,2.20151 -2.37596,2.99199 -0.58757,0.7487 -0.92867,1.11618 -1.01196,1.11835 -0.0416,0.001 0.27435,-0.5232 0.92105,-1.60661 0.63125,-0.99425 1.89977,-3.04675 3.32644,-5.77556 0.42431,-0.009 0.97902,0.17834 1.6674,0.55272 0.68737,0.37384 1.31943,0.80723 1.89014,1.29857 0.60961,0.44739 0.9337,0.87626 0.9714,1.29514 -0.33475,0.6005 -0.85642,1.39752 -1.57092,2.3632 -0.71663,0.96857 -1.5487,1.98103 -2.50255,3.03828 -0.49839,0.55242 -0.98848,1.09255 -1.47089,1.62269 0.2152,-0.24003 -1.53277,1.71185 -1.31757,1.47182 -0.92731,0.99928 -1.66944,1.79905 -2.35112,2.54946 0.13247,-0.12346 0.62476,-0.50793 1.487,-1.16497 0.80681,-0.61479 1.98787,-1.51669 3.21729,-2.46934 0.006,-0.005 0.54164,-0.43542 0.5473,-0.43998 3.21726,-2.53785 0.2261,-0.17824 3.44337,-2.71608 3.20076,-2.55025 0.86737,-0.69186 4.06813,-3.24211 1.29107,-1.06921 2.36643,-1.94896 3.28147,-2.65346 0.90916,-0.69996 1.48968,-1.0659 1.75983,-1.08586 0.22301,-0.0165 0.55677,0.13069 0.99782,0.43914 0.44043,0.30802 0.88933,0.69955 1.33861,1.17184 0.49088,0.42703 0.86354,0.86029 1.11833,1.30227 0.25182,0.39973 0.28879,0.69001 0.1175,0.87064 -0.25703,0.27106 -0.87629,0.94868 -1.87817,2.00033 -0.91371,1.00075 -1.99487,2.15519 -3.26247,3.44884 0,0 0,0 0,0 3.6e-4,-3.7e-4 -0.19027,0.1953 -0.1899,0.19493 -1.7404,1.84008 -2.13373,2.2496 -3.87413,4.08968 -1.22799,1.30891 -2.18293,2.40146 -2.88544,3.32958 1.58764,-0.91768 3.15599,-1.82154 4.75668,-2.753 0.36084,-0.20891 0.36466,-0.19269 -0.006,0.0592 -0.37288,0.25349 -0.82218,0.55821 -1.37868,0.93435 -0.55226,0.37327 -0.96468,0.6602 -1.24332,0.86608 -0.1412,0.1223 -0.31247,0.32357 -0.51524,0.60414 -0.19764,0.24085 -0.22693,0.30116 -0.085,0.17877 0.69905,-0.53267 1.57122,-1.1278 2.62659,-1.79501 1.05469,-0.66677 2.15207,-1.3385 3.2959,-2.0212 1.20236,-0.73132 2.23214,-1.3647 3.16022,-1.94038 -0.81705,0.40263 -1.60968,0.79912 -2.38029,1.19167 -0.76979,0.39214 -1.58822,0.84332 -2.45297,1.35083 0.32097,-0.21003 0.64188,-0.4206 0.96287,-0.63192 0.41535,-0.29486 1.00702,-0.65621 1.78053,-1.09051 0.77262,-0.43381 1.54519,-0.85209 2.31665,-1.25419 0.81677,-0.40501 1.42583,-0.68162 1.83234,-0.82664 -0.66433,0.42346 -1.32855,0.84226 -1.99323,1.25748 0.49786,-0.22589 1.01806,-0.45432 1.56145,-0.68596 0.54608,-0.27233 1.11446,-0.54791 1.70617,-0.82768 0.3626,-0.14381 0.61047,-0.22023 0.74418,-0.22824 0.39987,-0.0239 0.41136,0.20157 0.0245,0.67486 -0.34171,0.46992 -0.83809,0.88402 -1.48321,1.24133 -1.00848,0.4975 -2.21154,1.24094 -3.61486,2.21576 -1.39058,0.96598 -2.89731,2.04586 -4.44185,3.18883 -1.51387,1.15045 -2.98594,2.29188 -4.4067,3.43506 -1.42273,1.10991 -2.60878,2.08307 -3.60482,2.95789 -0.76051,-0.64721 -1.11687,-1.30628 -1.06492,-1.97709 0.0519,-0.66995 0.10971,-1.26156 0.17492,-1.77156 -1e-4,7.9e-4 0.03,-0.23651 0.0299,-0.23571 0.0147,-0.1168 0.0322,-0.25622 0.0513,-0.41212 0.0657,-0.19759 0.17496,-0.41609 0.3278,-0.65545 -0.0185,-0.19443 -0.16965,-0.32566 -0.45254,-0.39384 -0.27836,-0.10729 -0.38819,-0.23994 -0.3296,-0.39785 0.24738,-0.74992 0.72897,-1.6212 1.4418,-2.62181 0.71389,-1.0021 1.49951,-2.04249 2.36007,-3.1405 0.51043,-0.62139 1.02326,-1.2431 1.5221,-1.84578 -0.10872,0.13002 1.22778,-1.46769 1.11905,-1.33767 0.85878,-1.02595 1.57539,-1.92991 2.15577,-2.693 0.579,-0.76126 0.94578,-1.30547 1.10114,-1.60126 -0.41793,0.40352 -1.26586,1.22521 -2.32338,2.21345 -1.10729,0.99277 -2.36602,2.11 -3.83721,3.37936 7e-5,-7e-5 -0.13592,0.11689 -0.13585,0.11683 -0.82451,0.71905 -3.57175,3.10349 -4.39626,3.82255 -1.59262,1.38471 -3.10547,2.73531 -4.54045,4.07972 -1.43504,1.30858 -2.63668,2.48818 -3.63549,3.57304 -0.9936,1.0792 -1.63755,1.9407 -1.9399,2.56673 z"
         style="font-family:Smooch;-inkscape-font-specification:Smooch;fill:#fffdfd;fill-opacity:1;stroke:#000000;stroke-width:1.40229;stroke-dasharray:none;stroke-opacity:1"
         id="path298"
         inkscape:original-d="m 213.66849,137.17374 q -0.8636,-0.1016 -1.3716,-0.9652 -0.508,-0.9144 -0.508,-1.7272 0,-0.6604 0.8128,-2.1336 0.8128,-1.524 2.032,-3.4036 1.27,-1.9304 2.5908,-3.81 1.3716,-1.8796 2.4384,-3.302 1.0668,-1.4732 1.4732,-2.032 -1.27,1.4224 -2.0828,2.3876 -0.762,0.9144 -0.8636,0.9144 -0.0508,0 0.8128,-1.3208 0.9144,-1.3208 3.0988,-4.5212 0.508,0 1.27,0.4572 0.762,0.4572 1.3716,1.0668 0.6604,0.5588 0.6604,1.0668 -0.4572,0.7112 -1.3716,1.8796 -0.9144,1.1684 -2.0828,2.4892 -1.1684,1.3208 -2.2352,2.5908 -1.0668,1.2192 -1.8288,2.1336 0.1524,-0.1524 1.1684,-0.9652 1.016,-0.8128 2.54,-2.032 1.524,-1.27 3.2004,-2.5908 1.7272,-1.3716 3.302,-2.54 1.5748,-1.2192 2.6924,-1.9812 1.1176,-0.762 1.4224,-0.762 0.254,0 0.7112,0.4064 0.4572,0.4064 0.9144,1.016 0.508,0.5588 0.762,1.1176 0.254,0.508 0.0508,0.7112 -0.3048,0.3048 -1.4732,1.524 -1.1176,1.2192 -2.6416,2.8956 -1.4732,1.6764 -2.8448,3.3528 -1.3208,1.6256 -2.032,2.794 l 3.556,-2.2352 q 0.4064,-0.254 0,0.0508 -0.4064,0.3048 -1.016,0.762 -0.6096,0.4572 -0.9144,0.7112 -0.1524,0.1524 -0.3556,0.508 -0.2032,0.3048 -0.0508,0.1524 0.762,-0.6604 1.9304,-1.4732 1.1684,-0.8128 2.4384,-1.6256 1.3208,-0.8636 2.3368,-1.524 -0.9144,0.4572 -1.778,0.9144 -0.8636,0.4572 -1.8288,1.0668 l 0.7112,-0.508 q 0.4572,-0.3556 1.3208,-0.8636 0.8636,-0.508 1.7272,-0.9652 0.9144,-0.4572 1.3716,-0.6096 l -1.4732,0.9652 q 0.5588,-0.254 1.1684,-0.508 0.6096,-0.3048 1.27,-0.6096 0.4064,-0.1524 0.5588,-0.1524 0.4572,0 0.0508,0.5588 -0.3556,0.5588 -1.0668,0.9652 -1.1176,0.5588 -2.6416,1.7272 -1.524,1.1684 -3.2004,2.5908 -1.6256,1.4224 -3.1496,2.8448 -1.524,1.3716 -2.5908,2.4384 -1.0668,-0.8636 -1.1176,-1.7272 -0.0508,-0.8636 -0.0508,-1.524 v -0.2032 q 0,-0.1524 0,-0.3556 0.0508,-0.254 0.2032,-0.5588 -0.0508,-0.254 -0.4064,-0.3556 -0.3556,-0.1524 -0.3048,-0.3556 0.2032,-0.9652 0.9652,-2.2352 0.762,-1.27 1.7272,-2.6416 1.016,-1.3716 2.032,-2.6416 1.016,-1.27 1.7272,-2.1844 0.7112,-0.9144 0.9144,-1.27 -0.5588,0.508 -1.8796,1.7272 -1.3208,1.1684 -3.048,2.7432 -1.6764,1.524 -3.5052,3.2512 -1.8288,1.7272 -3.4544,3.4036 -1.6256,1.6256 -2.7432,2.9464 -1.1176,1.3208 -1.4224,2.0828 z" />
    </g>
  </g>
</svg>
